<svg width="120" height="26" viewBox="0 0 120 26" fill="none" xmlns="http://www.w3.org/2000/svg">
<g clip-path="url(#clip0_5238_27044)">
<path fill-rule="evenodd" clip-rule="evenodd" d="M117.534 18.3527C117.706 18.3527 117.858 18.4405 117.93 18.5427L118.089 18.3882C117.992 18.2505 117.791 18.1406 117.542 18.1406C117.211 18.1406 116.984 18.3179 116.984 18.5753C116.984 18.8749 117.247 18.961 117.487 19.0395C117.689 19.1056 117.875 19.1663 117.875 19.3441C117.875 19.494 117.751 19.5887 117.532 19.5887C117.35 19.5887 117.196 19.5166 117.089 19.3766L116.927 19.5288C117.036 19.684 117.23 19.8014 117.529 19.8014C117.885 19.8014 118.114 19.6114 118.114 19.3289C118.114 19.0106 117.835 18.9204 117.589 18.841C117.396 18.7786 117.223 18.7228 117.223 18.5677C117.223 18.4376 117.342 18.3527 117.534 18.3527ZM119.776 18.53L119.183 19.4568L118.588 18.53V19.7712H118.364V18.1708H118.623L119.198 19.0872L119.771 18.1708H120V19.7712H119.776V18.53Z" fill="white"/>
<path fill-rule="evenodd" clip-rule="evenodd" d="M82.8289 0.319824H86.2679V19.7712H82.8289V10.5825V0.319824ZM49.3173 20.167C51.0649 20.167 52.4461 19.4603 53.4327 18.301V19.7712H56.8996V6.22876H53.4327V7.58583C52.4743 6.4831 51.0931 5.83298 49.3173 5.83298C45.5683 5.83298 42.8342 8.91462 42.8342 13.0141C42.8342 17.2268 45.7376 20.167 49.3173 20.167ZM33.7438 12.9858C33.7438 10.809 35.2659 9.08454 37.5208 9.08454C38.8455 9.08454 39.8602 9.50858 40.7058 10.3284L42.6786 7.86871C41.4949 6.62485 39.6628 5.83332 37.3515 5.83332C33.4056 5.83332 30.3052 9.05625 30.3052 13.0141C30.3052 16.9437 33.4056 20.1666 37.4079 20.1666C39.55 20.1666 41.4949 19.3185 42.5661 18.1312L40.8183 15.5867C39.9728 16.4348 38.8737 16.9154 37.4926 16.9154C35.2941 16.9154 33.7438 15.1627 33.7438 12.9858ZM53.4327 12.9858C53.4327 10.8089 51.9387 9.08435 49.8811 9.08435C47.7951 9.08435 46.2732 10.8089 46.2732 12.9858C46.2732 15.1628 47.7951 16.9156 49.8811 16.9156C51.9387 16.9156 53.4327 15.1628 53.4327 12.9858ZM59.3787 19.7712H62.8177V12.1943C62.8177 10.3566 63.6915 9.19724 65.0727 9.19724C65.7208 9.19724 66.3975 9.42355 66.8485 9.79104L68.2861 6.51139C67.7505 6.08732 67.0177 5.83298 66.1157 5.83298C64.7063 5.83298 63.5787 6.56796 62.8177 7.69899V6.22876H59.3787V19.7712ZM67.8061 13.0141C67.8061 9.05606 70.7374 5.83298 74.6272 5.83298C78.489 5.83298 81.4203 8.82975 81.4203 12.7315C81.4203 13.1556 81.3921 13.6362 81.336 13.8623H71.3295C71.6676 15.7566 73.1052 17.1136 75.191 17.1136C76.544 17.1136 77.6998 16.5198 78.489 15.7L80.2648 18.0466C79.25 19.234 77.3332 20.167 75.05 20.167C70.8503 20.167 67.8061 16.9439 67.8061 13.0141ZM77.897 11.6853H71.3859C71.7804 9.96077 72.9642 8.77318 74.6836 8.77318C76.2904 8.77318 77.5024 9.76275 77.897 11.6853ZM94.8646 5.83298C90.9466 5.83298 87.846 9.05606 87.846 13.0141C87.846 16.9439 90.9466 20.167 94.8646 20.167C98.7825 20.167 101.911 16.9439 101.911 13.0141C101.911 9.05606 98.7825 5.83298 94.8646 5.83298ZM98.4443 12.9858C98.4443 10.8089 96.9503 9.08435 94.8928 9.08435C92.8067 9.08435 91.2848 10.8089 91.2848 12.9858C91.2848 15.1628 92.8067 16.9156 94.8928 16.9156C96.9503 16.9156 98.4443 15.1628 98.4443 12.9858ZM103.489 19.7712H106.928V12.0811C106.928 10.2434 107.971 9.08435 109.69 9.08435C111.353 9.08435 112.424 10.2434 112.424 12.0811V19.7712H115.863V11.5722C115.863 8.03819 113.861 5.83298 110.733 5.83298C109.07 5.83298 107.773 6.45481 106.928 7.55754V6.22876H103.489V19.7712Z" fill="white"/>
<path d="M6.2545 0C2.80023 0 0 2.8087 0 6.2734C0 9.7381 2.80023 12.5446 6.2545 12.5446C6.58227 12.5446 6.97834 12.5159 7.29098 12.4618L7.51336 12.9986L6.26023 16.0502C6.6746 16.0509 7.09592 16.1225 7.50779 16.2728C7.80001 16.3795 8.07045 16.5197 8.31645 16.6873L9.83078 12.9986L8.32518 9.30602C7.38323 9.9519 6.15522 10.1485 5.00121 9.72717C3.09948 9.03292 2.11896 6.9238 2.81112 5.01633C3.50329 3.10887 5.60607 2.12537 7.50778 2.81963C8.99763 3.36352 9.92205 4.77578 9.9198 6.27916L12.422 7.31282C12.4782 6.97457 12.509 6.62767 12.509 6.2734C12.509 2.8087 9.70876 0 6.2545 0Z" fill="white"/>
<path opacity="0.9" d="M19.6687 0C16.2144 0 13.4142 2.8087 13.4142 6.2734C13.4142 6.60216 13.4448 6.99913 13.499 7.31301L12.9619 7.53582L9.92002 6.27922C9.91939 6.69482 9.848 7.11738 9.69809 7.53048C9.59179 7.82342 9.45216 8.09453 9.28516 8.34116L12.9619 9.86025L16.6452 8.35032C16.0013 7.40552 15.8053 6.17382 16.2253 5.01633C16.9175 3.10885 19.0203 2.12536 20.922 2.81962C22.8237 3.51387 23.8042 5.623 23.1121 7.53046C22.5698 9.02481 21.1618 9.95203 19.663 9.94977L18.6318 12.4595C18.969 12.5159 19.3155 12.5468 19.6687 12.5468C23.123 12.5468 25.9232 9.73808 25.9232 6.2734C25.9232 2.8087 23.123 0 19.6687 0Z" fill="white"/>
<path opacity="0.5" d="M12.9617 16.1395L9.278 17.6496C9.92194 18.5944 10.1179 19.8261 9.69789 20.9836C9.00571 22.8911 6.90295 23.8746 5.00122 23.1803C3.09949 22.486 2.11896 20.3769 2.81113 18.4694C3.3534 16.9751 4.7614 16.0479 6.26025 16.0501L7.29079 13.5404C6.95356 13.484 6.60771 13.4524 6.2545 13.4524C2.80024 13.4524 0 16.2618 0 19.7265C0 23.1912 2.80024 25.9999 6.2545 25.9999C9.70876 25.9999 12.509 23.1912 12.509 19.7265C12.509 19.3978 12.4811 19.0193 12.4232 18.6869L12.9617 18.4641L16.0032 19.7208C16.0038 19.3052 16.0752 18.8826 16.2251 18.4694C16.3314 18.1765 16.4711 17.9054 16.6381 17.6588L12.9617 16.1395Z" fill="white"/>
<path opacity="0.7" d="M19.6686 13.4525C19.3408 13.4525 18.9485 13.4833 18.6317 13.5384L18.4099 12.9992L19.6628 9.94981C19.2484 9.94918 18.8271 9.87756 18.4153 9.72721C18.1231 9.62052 17.8526 9.48038 17.6066 9.31274L16.0924 12.9992L17.5979 16.694C18.5398 16.0481 19.7679 15.8516 20.9219 16.2729C22.8236 16.9671 23.8041 19.0762 23.1119 20.9837C22.4198 22.8912 20.317 23.8747 18.4153 23.1804C16.9254 22.6365 16.001 21.2242 16.0033 19.7209L13.5011 18.6872C13.4449 19.0255 13.4141 19.3724 13.4141 19.7266C13.4141 23.1913 16.2143 26 19.6686 26C23.1229 26 25.9231 23.1913 25.9231 19.7266C25.9231 16.2619 23.1229 13.4525 19.6686 13.4525Z" fill="white"/>
</g>
<defs>
<clipPath id="clip0_5238_27044">
<rect width="120" height="26" fill="white"/>
</clipPath>
</defs>
</svg>
