<svg width="78" height="34" viewBox="0 0 78 34" fill="none" xmlns="http://www.w3.org/2000/svg">
<g clip-path="url(#clip0_5739_788)">
<path d="M0.423828 21.9783H8.8191V19.591H2.95305V16.6374H8.0115V14.2501H2.95305V11.3774H8.8205V9.01003H0.423828V21.9783ZM10.6954 21.9783H13.1636V20.1318V8.05908H10.6954V21.9783ZM19.8727 22.2622C21.512 22.2622 22.8873 21.5951 23.6154 20.7449L22.3409 19.0659C21.7746 19.6521 20.9443 20.0779 19.9735 20.0779C18.4761 20.0779 17.4442 19.107 17.2015 17.7516H24.3833C24.4245 17.5898 24.4443 17.2463 24.4443 16.9426C24.4443 14.1508 22.3409 12.0062 19.569 12.0062C16.7772 12.0062 14.6723 14.3126 14.6723 17.1441C14.6723 19.9558 16.8566 22.2636 19.8713 22.2636L19.8727 22.2622ZM19.6101 14.1082C20.764 14.1082 21.6341 14.8164 21.9165 16.1918H17.2428C17.5266 14.9584 18.3753 14.1082 19.6101 14.1082ZM32.4223 12.2872L29.913 19.7727L27.4447 12.2872H24.7339L28.2538 21.9783H31.4501L34.9501 12.2872H32.4209H32.4223ZM42.7464 21.9783H45.2345V12.2872H42.7464V13.258C42.058 12.4689 41.0674 12.0033 39.7929 12.0033C37.1018 12.0033 35.1389 14.209 35.1389 17.1413C35.1389 20.1559 37.2225 22.2608 39.7929 22.2608C41.0475 22.2608 42.0382 21.7555 42.7464 20.9252V21.9769V21.9783ZM40.1973 19.9345C38.6999 19.9345 37.6071 18.6798 37.6071 17.1228C37.6071 15.5658 38.6999 14.331 40.1973 14.331C41.6748 14.331 42.7464 15.5658 42.7464 17.1228C42.7464 18.6812 41.6748 19.9345 40.1973 19.9345ZM49.6485 16.4756C49.6485 15.1599 50.3965 14.331 51.6315 14.331C52.825 14.331 53.5945 15.1613 53.5945 16.4756V21.9783H56.0625V16.1109C56.0625 13.5816 54.626 12.0033 52.3805 12.0033C51.187 12.0033 50.256 12.449 49.6499 13.2367V12.2858H47.1818V21.9769H49.6499V16.4742L49.6485 16.4756ZM64.875 15.2209L66.2915 13.461C65.4415 12.5711 64.127 12.0048 62.468 12.0048C59.635 12.0048 57.4095 14.3112 57.4095 17.1427C57.4095 19.9544 59.635 22.2622 62.5075 22.2622C64.0445 22.2622 65.4415 21.6547 66.209 20.8045L64.9545 18.9836C64.347 19.591 63.5595 19.9345 62.567 19.9345C60.989 19.9345 59.876 18.6798 59.876 17.1228C59.876 15.5658 60.969 14.331 62.587 14.331C63.538 14.331 64.266 14.6348 64.8735 15.2209H64.875ZM72.078 22.2622C73.7175 22.2622 75.0925 21.5951 75.8205 20.7449L74.546 19.0659C73.98 19.6521 73.1495 20.0779 72.179 20.0779C70.6815 20.0779 69.6495 19.107 69.407 17.7516H76.5885C76.63 17.5898 76.6495 17.2463 76.6495 16.9426C76.6495 14.1508 74.546 12.0062 71.7745 12.0062C68.9825 12.0062 66.8775 14.3126 66.8775 17.1441C66.8775 19.9558 69.062 22.2636 72.0765 22.2636L72.078 22.2622ZM71.8155 14.1082C72.9695 14.1082 73.8395 14.8164 74.122 16.1918H69.448C69.732 14.9584 70.5805 14.1082 71.8155 14.1082ZM43.5285 33.3598H45.2359V24.6779H43.5285V28.1311H39.9518V24.6779H38.2585V33.3598H39.9518V29.7165H43.5285V33.3598ZM49.7919 33.55C50.889 33.55 51.81 33.103 52.2985 32.5338L51.4455 31.4097C51.0665 31.8029 50.51 32.0867 49.8601 32.0867C48.858 32.0867 48.1668 31.4367 48.005 30.5297H52.8135C52.8405 30.4219 52.855 30.1905 52.855 29.9875C52.855 28.1183 51.447 26.6834 49.5904 26.6834C47.7212 26.6834 46.3117 28.2276 46.3117 30.1238C46.3117 32.0058 47.7751 33.5515 49.7919 33.5515V33.55ZM49.6159 28.0913C50.388 28.0913 50.97 28.5654 51.16 29.4865H48.0305C48.2207 28.6605 48.7884 28.0913 49.6159 28.0913ZM58.782 33.3598H60.448V26.8721H58.782V27.5222C58.322 26.9942 57.658 26.6819 56.805 26.6819C55.0035 26.6819 53.6895 28.158 53.6895 30.1224C53.6895 32.1407 55.0845 33.55 56.805 33.55C57.645 33.55 58.308 33.2108 58.782 32.6559V33.3598ZM57.076 31.9916C56.074 31.9916 55.343 31.1514 55.343 30.1096C55.343 29.0664 56.074 28.2404 57.0775 28.2404C58.0665 28.2404 58.7835 29.0664 58.7835 30.1096C58.7835 31.1528 58.065 31.9916 57.0775 31.9916H57.076ZM61.852 33.3598H63.504V32.4345V24.0406H61.852V33.3598ZM64.611 28.3355H65.7495V31.1386C65.7495 32.7226 66.5895 33.55 67.9025 33.55C68.7015 33.55 69.3105 33.252 69.6765 32.9L68.9315 31.668C68.768 31.8568 68.47 31.993 68.1735 31.993C67.6865 31.993 67.4285 31.695 67.4285 31.0861V28.3369H69.1755V26.8736H67.4155V25.1945H65.7635V26.8736H64.6125V28.3369L64.611 28.3355ZM72.349 29.6767C72.349 28.7967 72.85 28.2404 73.676 28.2404C74.475 28.2404 74.9905 28.7953 74.9905 29.6767V33.3613H76.6425V29.434C76.6425 27.7408 75.6815 26.6848 74.177 26.6848C73.378 26.6848 72.755 26.9828 72.349 27.5108V24.0434H70.697V33.3627H72.349V29.6781V29.6767ZM77.314 20.9096C76.925 20.9096 76.624 21.2261 76.624 21.6121C76.624 21.9982 76.925 22.3076 77.314 22.3076C77.703 22.3076 77.9935 22.0039 77.9935 21.6121C77.9935 21.2204 77.697 20.9096 77.314 20.9096ZM77.314 21.0302C77.6275 21.0302 77.869 21.2928 77.869 21.6107C77.869 21.9286 77.636 22.1855 77.314 22.1855C76.9915 22.1855 76.7545 21.9272 76.7545 21.6107C76.7545 21.2942 76.9975 21.0302 77.314 21.0302ZM77.0455 21.9783H77.186V21.6618H77.26L77.4925 21.9783H77.6515L77.409 21.6561C77.501 21.6405 77.6035 21.5894 77.6035 21.4489C77.6035 21.2644 77.4345 21.2318 77.3295 21.2318H77.0455V21.9783ZM77.324 21.3496C77.3935 21.3496 77.4615 21.3623 77.4615 21.4489C77.4615 21.5355 77.3975 21.5511 77.324 21.5511H77.186V21.3496H77.324Z" fill="#222222"/>
<path d="M16.0863 7.54955L11.932 3.39521L7.77768 7.54955L6.20508 5.97695L11.932 0.25L17.6589 5.97695L16.0863 7.54955Z" fill="#222222"/>
</g>
<defs>
<clipPath id="clip0_5739_788">
<rect width="78" height="34" fill="white"/>
</clipPath>
</defs>
</svg>
